<?xml version="1.0" encoding="UTF-8" standalone="no"?>
<svg
   xmlns:dc="http://purl.org/dc/elements/1.1/"
   xmlns:cc="http://creativecommons.org/ns#"
   xmlns:rdf="http://www.w3.org/1999/02/22-rdf-syntax-ns#"
   xmlns:svg="http://www.w3.org/2000/svg"
   xmlns="http://www.w3.org/2000/svg"
   xmlns:sodipodi="http://sodipodi.sourceforge.net/DTD/sodipodi-0.dtd"
   xmlns:inkscape="http://www.inkscape.org/namespaces/inkscape"
   sodipodi:docname="expand.svg"
   inkscape:version="1.0.2 (e86c870879, 2021-01-15)"
   id="svg4705"
   version="1.1"
   viewBox="0 0 67.733332 67.733332"
   height="256"
   width="256">
  <defs
     id="defs4699" />
  <sodipodi:namedview
     units="px"
     inkscape:document-rotation="0"
     inkscape:window-maximized="1"
     inkscape:window-y="0"
     inkscape:window-x="0"
     inkscape:window-height="1043"
     inkscape:window-width="1836"
     fit-margin-bottom="0"
     fit-margin-right="0"
     fit-margin-left="0"
     fit-margin-top="0"
     showgrid="false"
     inkscape:current-layer="svg4705"
     inkscape:document-units="px"
     inkscape:cy="161.68285"
     inkscape:cx="-84.182884"
     inkscape:zoom="0.70710678"
     inkscape:pageshadow="2"
     inkscape:pageopacity="0"
     borderopacity="1.0"
     bordercolor="#666666"
     pagecolor="#6b6b6b"
     id="base" />
  <metadata
     id="metadata4702">
    <rdf:RDF>
      <cc:Work
         rdf:about="">
        <dc:format>image/svg+xml</dc:format>
        <dc:type
           rdf:resource="http://purl.org/dc/dcmitype/StillImage" />
        <dc:title />
      </cc:Work>
    </rdf:RDF>
  </metadata>
  <g
     id="g833"
     transform="rotate(90,33.866666,33.866653)">
    <path
       id="path902"
       style="display:inline;fill:#ffffff;fill-opacity:1;stroke-width:22.5845;paint-order:stroke fill markers"
       d="M 127.67578,0 A 128,128 0 0 0 0,128 128,128 0 0 0 128,256 128,128 0 0 0 256,128 128,128 0 0 0 128,0 128,128 0 0 0 127.67578,0 Z M 128,18 A 110,110 0 0 1 238,128 110,110 0 0 1 128,238 110,110 0 0 1 18,128 110,110 0 0 1 128,18 Z"
       transform="scale(0.26458333)" />
    <path
       id="path876"
       style="fill:#ffffff;stroke:none;stroke-width:0.579993;stroke-linecap:round;stroke-linejoin:round;paint-order:markers fill stroke"
       inkscape:transform-center-x="-3.9687537"
       inkscape:transform-center-y="-3.5669836e-06"
       d="m 30.768405,18.986438 a 46.302105,46.302083 0 0 1 2.148706,9.554973 H 31.160629 13.157067 a 11.244796,11.244791 0 0 1 1.341005,5.325255 11.244796,11.244791 0 0 1 -1.305348,5.258078 h 17.967905 1.764234 a 46.302105,46.302083 0 0 1 -2.156458,9.621634 l 23.80786,-14.879712 z" />
  </g>
</svg>
