<?xml version="1.0" encoding="UTF-8" standalone="no"?>
<svg
   xmlns:dc="http://purl.org/dc/elements/1.1/"
   xmlns:cc="http://creativecommons.org/ns#"
   xmlns:rdf="http://www.w3.org/1999/02/22-rdf-syntax-ns#"
   xmlns:svg="http://www.w3.org/2000/svg"
   xmlns="http://www.w3.org/2000/svg"
   xmlns:sodipodi="http://sodipodi.sourceforge.net/DTD/sodipodi-0.dtd"
   xmlns:inkscape="http://www.inkscape.org/namespaces/inkscape"
   sodipodi:docname="lines.svg"
   inkscape:version="1.0.2 (e86c870879, 2021-01-15)"
   id="svg8"
   version="1.1"
   viewBox="0 0 26.193749 26.193751"
   height="99"
   width="99">
  <defs
     id="defs2" />
  <sodipodi:namedview
     inkscape:window-maximized="1"
     inkscape:window-y="0"
     inkscape:window-x="0"
     inkscape:window-height="1016"
     inkscape:window-width="1836"
     units="px"
     showgrid="false"
     inkscape:document-rotation="0"
     inkscape:current-layer="svg8"
     inkscape:document-units="px"
     inkscape:cy="28.079881"
     inkscape:cx="93.204027"
     inkscape:zoom="2.8284271"
     inkscape:pageshadow="2"
     inkscape:pageopacity="0.0"
     borderopacity="1.0"
     bordercolor="#666666"
     pagecolor="#ffffff"
     id="base" />
  <metadata
     id="metadata5">
    <rdf:RDF>
      <cc:Work
         rdf:about="">
        <dc:format>image/svg+xml</dc:format>
        <dc:type
           rdf:resource="http://purl.org/dc/dcmitype/StillImage" />
        <dc:title></dc:title>
      </cc:Work>
    </rdf:RDF>
  </metadata>
  <path
     id="rect839"
     style="fill:#b3b3b3;stroke-width:1.16424;stroke-linecap:round;stroke-linejoin:round;paint-order:markers fill stroke"
     d="M 11.400391 0 A 11.5 11.5 0 0 0 0 11.5 A 11.5 11.5 0 0 0 11.5 23 L 87.5 23 A 11.5 11.5 0 0 0 99 11.5 A 11.5 11.5 0 0 0 87.599609 0 A 11.5 11.5 0 0 0 87.5 0 L 11.5 0 A 11.5 11.5 0 0 0 11.400391 0 z "
     transform="scale(0.26458333)" />
  <path
     id="rect853"
     style="fill:#b3b3b3;stroke-width:1.16424;stroke-linecap:round;stroke-linejoin:round;paint-order:markers fill stroke"
     d="M 11.400391 38 A 11.5 11.5 0 0 0 0 49.5 A 11.5 11.5 0 0 0 11.5 61 L 87.5 61 A 11.5 11.5 0 0 0 99 49.5 A 11.5 11.5 0 0 0 87.599609 38 A 11.5 11.5 0 0 0 87.5 38 L 11.5 38 A 11.5 11.5 0 0 0 11.400391 38 z "
     transform="scale(0.26458333)" />
  <path
     id="rect861"
     style="fill:#b3b3b3;stroke-width:1.16424;stroke-linecap:round;stroke-linejoin:round;paint-order:markers fill stroke"
     d="M 11.400391 76 A 11.5 11.5 0 0 0 0 87.5 A 11.5 11.5 0 0 0 11.5 99 L 87.5 99 A 11.5 11.5 0 0 0 99 87.5 A 11.5 11.5 0 0 0 87.599609 76 A 11.5 11.5 0 0 0 87.5 76 L 11.5 76 A 11.5 11.5 0 0 0 11.400391 76 z "
     transform="scale(0.26458333)" />
</svg>
